<?xml version="1.0" encoding="UTF-8"?>
<svg width="394px" height="394px" viewBox="0 0 394 394" version="1.1" xmlns="http://www.w3.org/2000/svg" xmlns:xlink="http://www.w3.org/1999/xlink">
    <!-- Generator: Sketch 54.1 (76490) - https://sketchapp.com -->
    <title>wineGlass</title>
    <desc>Created with Sketch.</desc>
    <defs>
        <linearGradient x1="50%" y1="0%" x2="50%" y2="100%" id="linearGradient-1">
            <stop stop-color="#ED5565" offset="0%"></stop>
            <stop stop-color="#D62839" offset="100%"></stop>
        </linearGradient>
        <path d="M188.022997,393.780699 C83.577699,388.885583 0.401367188,302.656228 0.401367188,197 C0.401367188,88.1999043 88.6012715,0 197.401367,0 C306.201463,0 394.401367,88.1999043 394.401367,197 C394.401367,303.285503 310.231309,389.912036 204.911298,393.859494 C205.742445,366.775812 207.149173,339.713853 209.130392,312.691845 C226.154929,310.511417 242.733558,303.937685 257.069374,292.97065 C293.097089,265.409106 306.787085,217.578883 290.77615,175.205634 L257.069374,86 L135.733361,86 L102.026584,175.205634 C86.0156489,217.578883 99.7056451,265.409106 135.733361,292.97065 C150.107135,303.966723 166.735615,310.546198 183.807585,312.709073 C185.786218,339.69915 187.191717,366.729079 188.022997,393.780699 Z M242.520896,131.269877 L262.450672,184.014412 C273.655142,213.667259 264.074868,247.138902 238.862632,266.426501 C213.819128,285.585019 178.99506,285.585019 153.951556,266.426501 C148.050032,261.911779 143.004992,256.619906 138.88252,250.781768 C154.96356,245.658393 170.36341,237.750021 184.341499,227.056651 C215.882228,202.927695 236.007539,168.440678 242.520896,131.269877 Z" id="path-2"></path>
        <linearGradient x1="50%" y1="-38.6284458%" x2="104.525939%" y2="129.826461%" id="linearGradient-4">
            <stop stop-color="#FF3044" offset="0%"></stop>
            <stop stop-color="#FF5B6D" offset="30.2655278%"></stop>
            <stop stop-color="#E63093" offset="100%"></stop>
        </linearGradient>
        <path d="M313.467773,-7.2537085e-15 C372.870117,-7.2537085e-15 411.401367,38.53125 411.401367,97.9335938 L411.401367,313.066406 C411.401367,372.46875 372.870117,411 313.467773,411 L98.3349609,411 C38.9326172,411 0.401367188,372.46875 0.401367188,313.066406 L0.401367188,97.9335937 C0.401367188,38.53125 38.9326172,-7.25370847e-15 98.3349609,-7.25370847e-15 L313.467773,-7.2537085e-15 Z" id="path-5"></path>
        <radialGradient cx="20.392961%" cy="100%" fx="20.392961%" fy="100%" r="124.57952%" gradientTransform="translate(0.203930,1.000000),scale(0.692147,1.000000),rotate(23.518435),scale(1.000000,0.631423),translate(-0.203930,-1.000000)" id="radialGradient-7">
            <stop stop-color="#5688E0" offset="0%"></stop>
            <stop stop-color="#5688E0" offset="34.0477196%"></stop>
            <stop stop-color="#E83D5C" stop-opacity="0" offset="100%"></stop>
        </radialGradient>
    </defs>
    <g id="Icon" stroke="none" stroke-width="1" fill="none" fill-rule="evenodd">
        <g id="wineGlass" transform="translate(-0.401367, 0.000000)">
            <mask id="mask-3" fill="white">
                <use xlink:href="#path-2"></use>
            </mask>
            <use id="Mask" fill="url(#linearGradient-1)" xlink:href="#path-2"></use>
            <g id="Group-2" mask="url(#mask-3)">
                <g transform="translate(-9.000000, -17.000000)">
                    <path d="M313.825391,-7.2537085e-15 C373.227735,-7.2537085e-15 411.758985,38.53125 411.758985,97.9335938 L411.758985,313.066406 C411.758985,372.46875 373.227735,411 313.825391,411 L98.6925783,411 C39.2902345,411 0.758984548,372.46875 0.758984548,313.066406 L0.758984548,97.9335937 C0.758984548,38.53125 39.2902345,-7.25370847e-15 98.6925783,-7.25370847e-15 L313.825391,-7.2537085e-15 Z" id="Background" fill="url(#linearGradient-4)"></path>
                    <g id="Yellow-Flare" stroke-width="1" fill="none">
                        <mask id="mask-6" fill="white">
                            <use xlink:href="#path-5"></use>
                        </mask>
                        <use id="Mask" fill="url(#linearGradient-4)" xlink:href="#path-5"></use>
                        <path d="M634.401367,276.067106 C610.315331,377.382024 528.338534,440 412.413376,440 L-91.2974405,440 C-230.38177,440 -320.598633,349.863636 -320.598633,210.903409 L-320.598633,-186.163859 C-244.077262,-208.704564 -161.473756,-221 -75.3215377,-221 C285.782884,-221 584.542035,-4.98862334 634.401367,276.067106 L634.401367,276.067106 Z" fill="url(#radialGradient-7)" opacity="0.428780692" style="mix-blend-mode: soft-light;" mask="url(#mask-6)"></path>
                    </g>
                </g>
            </g>
        </g>
    </g>
</svg>